<svg width="20" height="21" viewBox="0 0 20 21" fill="none" xmlns="http://www.w3.org/2000/svg">
<path d="M17.5665 6.39339C17.4225 6.14391 17.2163 5.936 16.968 5.78995C16.7198 5.6439 16.4379 5.5647 16.1498 5.56006H5.48317L4.99984 3.67673C4.951 3.49492 4.84205 3.33501 4.69073 3.22304C4.53941 3.11106 4.35464 3.05361 4.1665 3.06006H2.49984C2.27882 3.06006 2.06686 3.14786 1.91058 3.30414C1.7543 3.46042 1.6665 3.67238 1.6665 3.89339C1.6665 4.11441 1.7543 4.32637 1.91058 4.48265C2.06686 4.63893 2.27882 4.72673 2.49984 4.72673H3.53317L5.83317 13.2767C5.882 13.4585 5.99095 13.6184 6.14227 13.7304C6.29359 13.8424 6.47837 13.8998 6.6665 13.8934H14.1665C14.3204 13.8929 14.4711 13.8499 14.6021 13.769C14.733 13.6881 14.8389 13.5725 14.9082 13.4351L17.6415 7.96839C17.76 7.72007 17.8151 7.44628 17.802 7.17146C17.789 6.89664 17.708 6.62933 17.5665 6.39339ZM13.6498 12.2267H7.29984L5.9415 7.22673H16.1498L13.6498 12.2267Z" fill="white"/>
<path d="M6.25 18.0601C6.94036 18.0601 7.5 17.5004 7.5 16.8101C7.5 16.1197 6.94036 15.5601 6.25 15.5601C5.55964 15.5601 5 16.1197 5 16.8101C5 17.5004 5.55964 18.0601 6.25 18.0601Z" fill="white"/>
<path d="M14.5835 18.0601C15.2739 18.0601 15.8335 17.5004 15.8335 16.8101C15.8335 16.1197 15.2739 15.5601 14.5835 15.5601C13.8931 15.5601 13.3335 16.1197 13.3335 16.8101C13.3335 17.5004 13.8931 18.0601 14.5835 18.0601Z" fill="white"/>
</svg>
